<?xml version="1.0" standalone="no"?>
<!DOCTYPE svg PUBLIC "-//W3C//DTD SVG 20010904//EN"
 "http://www.w3.org/TR/2001/REC-SVG-20010904/DTD/svg10.dtd">
<svg version="1.0" xmlns="http://www.w3.org/2000/svg"
 width="442.000000pt" height="442.000000pt" viewBox="0 0 442.000000 442.000000"
 preserveAspectRatio="xMidYMid meet">
<metadata>
Created by potrace 1.14, written by Peter Selinger 2001-2017
</metadata>
<g transform="translate(0.000000,442.000000) scale(0.100000,-0.100000)"
fill="#000000" stroke="none">
<path d="M2470 4173 c-107 -36 -181 -129 -183 -229 -2 -147 102 -254 248 -254
74 0 128 24 178 76 149 158 30 418 -190 413 -21 0 -45 -3 -53 -6z"/>
<path d="M3209 4167 c-35 -26 -39 -54 -39 -240 0 -182 0 -184 25 -211 16 -17
35 -26 57 -27 36 0 1109 0 1146 1 l22 0 0 245 0 245 -597 0 c-454 -1 -602 -4
-614 -13z"/>
<path d="M2659 3072 c-56 -2 -70 -7 -90 -28 -23 -24 -23 -30 -24 -207 -2 -194
4 -225 47 -248 17 -9 243 -12 908 -11 487 0 893 1 903 1 16 1 17 20 17 246 l0
245 -32 1 c-152 2 -1678 3 -1729 1z"/>
<path d="M153 2963 c-53 -18 -125 -96 -142 -153 -48 -161 69 -320 235 -320
222 1 328 263 170 422 -63 63 -171 84 -263 51z"/>
<path d="M982 2955 c-33 -29 -38 -67 -32 -260 5 -154 6 -166 28 -187 l23 -23
600 0 601 0 24 28 c24 28 24 32 24 217 0 185 0 189 -24 217 l-24 28 -597 1
c-597 1 -598 1 -623 -21z"/>
<path d="M973 1880 c-44 -18 -50 -52 -49 -247 l1 -183 28 -27 27 -28 406 0
c448 0 455 1 473 59 6 17 9 109 8 209 l-2 179 -28 24 -28 24 -407 -1 c-224 0
-417 -4 -429 -9z"/>
<path d="M2148 1875 c-15 -8 -29 -23 -32 -33 -5 -15 -10 -312 -7 -374 1 -9 12
-29 25 -45 l24 -28 957 0 c526 0 959 3 962 8 2 4 11 47 18 95 8 48 16 96 19
107 12 52 47 224 52 253 l5 32 -998 0 c-854 -1 -1002 -3 -1025 -15z"/>
<path d="M4407 1565 c-10 -42 -14 -64 -22 -126 -3 -30 -9 -67 -11 -84 -7 -43
-7 -253 0 -295 3 -19 14 -69 24 -110 l17 -75 3 183 c4 273 -2 542 -11 507z"/>
<path d="M2191 789 c-53 -7 -81 -36 -82 -85 -3 -204 0 -344 9 -361 6 -11 24
-25 39 -32 21 -8 321 -11 1141 -9 l1113 3 -51 55 c-93 101 -167 223 -219 362
l-26 70 -940 2 c-517 0 -960 -2 -984 -5z"/>
</g>
</svg>
