<svg width="601" height="216" xmlns="http://www.w3.org/2000/svg" xml:space="preserve" version="1.1" class="inline">

 <g>
  <title>Layer 1</title>
  <path id="svg_1" fill="#ffffff" d="m60.8,11.8c3.3,0 5.9,-2.7 5.9,-5.9c0,-3.3 -2.7,-5.9 -5.9,-5.9s-5.9,2.7 -5.9,5.9c0,3.3 2.6,5.9 5.9,5.9z" class="st0"/>
  <path id="svg_2" fill="#ffffff" d="m5.9,28.8c-3.3,0 -5.9,2.7 -5.9,5.9s2.7,5.9 5.9,5.9c3.3,0 5.9,-2.7 5.9,-5.9s-2.6,-5.9 -5.9,-5.9z" class="st0"/>
  <path id="svg_3" fill="#ffffff" d="m24.9,40.7l27,0c1.2,0 2.1,-1 2.1,-2.1l0,-7.6c0,-1.2 -1,-2.1 -2.1,-2.1l-27,0c-1.2,0 -2.1,1 -2.1,2.1l0,7.6c0,1.1 1,2.1 2.1,2.1z" class="st0"/>
  <path id="svg_4" fill="#ffffff" d="m42.7,55l-18.4,0c-1.2,0 -2.1,1 -2.1,2.1l0,7.6c0,1.2 1,2.1 2.1,2.1l18.4,0c1.2,0 2.1,-1 2.1,-2.1l0,-7.6c0,-1.1 -0.9,-2.1 -2.1,-2.1z" class="st0"/>
  <path id="svg_5" fill="#ffffff" d="m100.1,55l-47.4,0c-1.2,0 -2.1,1 -2.1,2.1l0,7.6c0,1.2 1,2.1 2.1,2.1l45.2,0c0.2,-1.6 0.4,-3.2 0.8,-4.9l1.4,-6.9z" class="st0"/>
  <path id="svg_6" fill="#ffffff" d="m103.6,90.6c-2.2,-2.7 -3.8,-5.8 -4.8,-9.3l-46.1,0c-1.2,0 -2.1,1 -2.1,2.1l0,7.6c0,1.2 1,2.1 2.1,2.1l53.3,0c-0.8,-0.8 -1.6,-1.6 -2.4,-2.5z" class="st0"/>
  <path id="svg_7" fill="#ffffff" d="m107.9,27.4c0.1,-0.3 0.2,-0.5 0.2,-0.8l-44.9,0c-1.2,0 -2.1,1 -2.1,2.1l0,7.6c0,1.2 1,2.1 2.1,2.1l44.2,0c-0.7,-4.4 -0.2,-8.3 0.5,-11z" class="st0"/>
  <path id="svg_8" fill="#ffffff" d="m126.1,0l-47.9,0c-1.2,0 -2.1,1 -2.1,2.1l0,7.6c0,1.2 1,2.1 2.1,2.1l36.1,0c3.2,-4.9 7.1,-8.8 11.8,-11.8z" class="st0"/>
  <g id="svg_9">
   <path id="svg_10" stroke-miterlimit="10" stroke-width="2" stroke="#294896" fill="#ffffff" d="m154.8,66.2c1,-4.3 -0.8,-7.1 -5.5,-8.7c-4.4,-1.6 -9.6,-3.1 -15.1,-4.8c-15,-4.4 -21.1,-12.4 -18.4,-24.1c4.6,-18.5 16.9,-27.6 37,-27.4c19.2,0 27.1,9.1 23.9,27.3l-9.4,0c-3.5,0 -5.5,-1.8 -6.3,-5.2c-1.6,-5 -6,-7.5 -13.1,-7.5c-8.7,0.1 -13.8,3.6 -15.7,10.4c-1.3,5.6 3,9.6 13.1,12.2c5.8,1.6 11.8,3.5 18.1,6.1c8.4,3.4 11,10.6 8,21.7c-4.9,17.2 -17.7,25.8 -38.3,25.8c-21.6,0 -30.3,-9.7 -26.4,-28.9l16.2,0c-1.5,9.3 2.9,14 13.6,14c10.8,-0.1 16.8,-3.7 18.3,-10.9z" class="st1"/>
   <path id="svg_11" stroke-miterlimit="10" stroke-width="2" stroke="#294896" fill="#ffffff" d="m204.5,92.2c-19.1,-0.6 -25.9,-12.7 -20.6,-36s17.7,-34.9 37.1,-35.1c20.2,0 26.6,13.3 19.3,40.1l-41.1,0c-1.8,10.5 1.2,15.8 9,15.8c3.7,0 7.6,-1.7 11.5,-4.9c1.8,-1.7 3.8,-2.5 6,-2.5l11.8,0c-6.9,14.5 -17.4,22.6 -33,22.6zm-2.3,-43.3l23.9,0c1.1,-9.1 -1.8,-13.7 -8.6,-13.7c-6.8,0 -12,4.7 -15.3,13.7z" class="st1"/>
   <path id="svg_12" stroke-miterlimit="10" stroke-width="2" stroke="#294896" fill="#ffffff" d="m277.6,11l-18.3,79.6l-16,0l20.2,-88l8.3,0c4.2,0 6.8,3.9 5.8,8.4z" class="st1"/>
   <path id="svg_13" stroke-miterlimit="10" stroke-width="2" stroke="#294896" fill="#ffffff" d="m307.4,11l-18.3,79.6l-16,0l20.2,-88l8.3,0c4.2,0 6.8,3.9 5.8,8.4z" class="st1"/>
   <path id="svg_14" stroke-miterlimit="10" stroke-width="2" stroke="#294896" fill="#ffffff" d="m328.5,92.2c-19.1,-0.6 -25.9,-12.7 -20.6,-36s17.7,-34.9 37.1,-35.1c20.2,0 26.6,13.3 19.3,40.1l-41.1,0c-1.8,10.5 1.2,15.8 9,15.8c3.7,0 7.6,-1.7 11.5,-4.9c1.8,-1.7 3.8,-2.5 6,-2.5l11.8,0c-6.9,14.5 -17.4,22.6 -33,22.6zm-2.2,-43.3l23.9,0c1.1,-9.1 -1.8,-13.7 -8.6,-13.7c-6.9,0 -12,4.7 -15.3,13.7z" class="st1"/>
   <path id="svg_15" stroke-miterlimit="10" stroke-width="2" stroke="#294896" fill="#ffffff" d="m375.5,55.3c5.6,-22.1 19,-33.1 40.3,-33.1l2.3,0l-4.1,17.9l-5.4,0c-8.9,0 -14.5,5 -16.8,15l-8.2,35.6l-16.2,0l8.1,-35.4z" class="st1"/>
   <path id="svg_16" fill="#ffffff" d="m119.4,175.6l-23.2,0l-8.9,39l-16.5,0l18,-78.6c1.2,-5 5.9,-9.4 10.6,-9.4l50.7,0l-3.5,15.3l-42.6,0l-4.3,18.9l31.9,0l-1.3,5.8c-1.2,5 -6.2,9 -10.9,9z" class="st0"/>
   <path id="svg_17" fill="#ffffff" d="m199.2,187.3c-2.7,11.8 -7.2,19.5 -13.7,23.3c-6.4,3.5 -13.1,5.3 -20,5.3c-6.6,0 -12,-1.9 -16.7,-5.8c-4.7,-3.8 -5.7,-11.3 -3.1,-22.8l9.4,-41.2l16,0l-10.2,44.6c-1.8,7.6 1,11.4 8.2,11.4s11.7,-3.8 13.4,-11.4l8.3,-36.1c1.2,-5.7 4.4,-8.5 9.6,-8.5l8.2,0l-9.4,41.2z" class="st0"/>
   <path id="svg_18" fill="#ffffff" d="m236.6,135l-18.3,79.6l-16,0l20.2,-88l8.3,0c4.2,0 6.8,3.9 5.8,8.4z" class="st0"/>
   <path id="svg_19" fill="#ffffff" d="m261.9,163.1l-2.2,0l-11.8,51.5l-16,0l16.1,-70.3c2.4,-13.1 10.7,-18.2 22.6,-18.2c2.8,0 5.3,0.1 7.6,0.5l-3.3,14.2l-4.2,0c-3.7,0 -6.1,1.7 -7.3,5l-1,4.5l10.3,0l-0.9,4c-1,4.8 -5.6,8.8 -9.9,8.8z" class="st0"/>
   <path id="svg_20" fill="#ffffff" d="m292.3,146.1c5.2,0 7.1,2.7 5.8,8.3l-13.8,60.2l-16,0l15.7,-68.5l8.3,0zm4.5,-19.5c5.3,0 7.2,2.8 5.8,8.4l-1.2,5l-16,0l3.1,-13.5l8.3,0l0,0.1z" class="st0"/>
   <path id="svg_21" fill="#ffffff" d="m332.4,135l-18.3,79.6l-16,0l20.2,-88l8.3,0c4.2,0 6.8,3.9 5.8,8.4z" class="st0"/>
   <path id="svg_22" fill="#ffffff" d="m351.8,170.8l-10,43.7l-16.2,0l9.2,-40.2c4.5,-19.5 15.8,-29.2 34,-29.2c8.2,0 14,1.9 17.6,5.8c5.4,-3.8 12.1,-5.6 20.3,-5.6c18.1,0 24.9,9.7 20.3,29.2l-9.2,40.2l-8.3,0c-5.2,-0.4 -7.2,-3.1 -6,-8.5l8.1,-35.2c1.3,-7.1 -1.5,-10.6 -8.6,-10.6s-11.5,3.5 -13.2,10.6l-10,43.5l-16.1,0l10,-43.7c1.3,-7.1 -1.5,-10.6 -8.6,-10.6s-11.6,3.5 -13.3,10.6z" class="st0"/>
   <path id="svg_23" fill="#ffffff" d="m457.4,216.1c-19.1,-0.6 -25.9,-12.7 -20.6,-36c5.3,-23.3 17.7,-34.9 37.1,-35.1c20.2,0 26.6,13.3 19.3,40.1l-41.1,0c-1.8,10.5 1.2,15.8 9,15.8c3.7,0 7.6,-1.7 11.5,-4.9c1.8,-1.7 3.8,-2.5 6,-2.5l11.8,0c-6.9,14.6 -17.4,22.6 -33,22.6zm-2.2,-43.2l23.9,0c1.1,-9.1 -1.8,-13.7 -8.6,-13.7c-6.9,0 -12.1,4.6 -15.3,13.7z" class="st0"/>
   <path id="svg_24" fill="#ffffff" d="m542.3,214.6c-5.2,-0.4 -7.2,-3.1 -6,-8.5l8.1,-35.2c1.3,-7.1 -1.5,-10.6 -8.6,-10.6s-11.5,3.5 -13.2,10.6l-10,43.7l-16.2,0l9.2,-40.2c4.5,-19.5 15.8,-29.2 34,-29.2c18.1,0 24.8,9.7 20.2,29.2l-9.2,40.2l-8.3,0z" class="st0"/>
   <path id="svg_25" fill="#ffffff" d="m590.6,158.4l-1.7,0l-8.7,37.9c-0.7,2.8 0.6,4.4 3.7,4.4l4.9,0l-3,13.1c-5.3,0.5 -10.9,0.5 -16.8,-0.1c-5.9,-0.6 -7.8,-4.7 -5.9,-12.3l17.2,-74.8l8.3,0c4.2,0 6.7,4.1 5.7,8.7l-2.5,10.9l9.6,0l-0.9,3.8c-1.2,4.8 -5.5,8.4 -9.9,8.4z" class="st0"/>
  </g>
 </g>
</svg>