<svg width="100%" height="100%" id="svg" viewBox="0 0 1440 700" xmlns="http://www.w3.org/2000/svg" class="transition duration-300 ease-in-out delay-150"><path d="M 0,700 C 0,700 0,140 0,140 C 71.64102564102564,110.61025641025641 143.28205128205127,81.22051282051282 217,97 C 290.71794871794873,112.77948717948718 366.51282051282055,173.72820512820513 448,171 C 529.4871794871794,168.27179487179487 616.6666666666666,101.86666666666666 700,93 C 783.3333333333334,84.13333333333334 862.8205128205127,132.8051282051282 956,157 C 1049.1794871794873,181.1948717948718 1156.0512820512822,180.91282051282053 1239,174 C 1321.9487179487178,167.08717948717947 1380.974358974359,153.54358974358973 1440,140 C 1440,140 1440,700 1440,700 Z" stroke="none" stroke-width="0" fill="#0693e344" class="transition-all duration-300 ease-in-out delay-150 path-0"></path><path d="M 0,700 C 0,700 0,280 0,280 C 89.46923076923076,302.14102564102564 178.93846153846152,324.28205128205127 259,326 C 339.0615384615385,327.71794871794873 409.71538461538466,309.0128205128205 478,287 C 546.2846153846153,264.9871794871795 612.1999999999999,239.66666666666669 695,237 C 777.8000000000001,234.33333333333331 877.4846153846154,254.32051282051282 954,277 C 1030.5153846153846,299.6794871794872 1083.8615384615384,325.05128205128204 1161,326 C 1238.1384615384616,326.94871794871796 1339.0692307692307,303.474358974359 1440,280 C 1440,280 1440,700 1440,700 Z" stroke="none" stroke-width="0" fill="#0693e366" class="transition-all duration-300 ease-in-out delay-150 path-1"></path><path d="M 0,700 C 0,700 0,420 0,420 C 71.27179487179487,415.7153846153846 142.54358974358973,411.4307692307692 211,415 C 279.45641025641027,418.5692307692308 345.09743589743584,429.9923076923077 444,429 C 542.9025641025642,428.0076923076923 675.0666666666666,414.6 751,421 C 826.9333333333334,427.4 846.6358974358975,453.60769230769233 924,445 C 1001.3641025641025,436.39230769230767 1136.3897435897436,392.96923076923076 1232,383 C 1327.6102564102564,373.03076923076924 1383.8051282051283,396.5153846153846 1440,420 C 1440,420 1440,700 1440,700 Z" stroke="none" stroke-width="0" fill="#0693e388" class="transition-all duration-300 ease-in-out delay-150 path-2"></path><path d="M 0,700 C 0,700 0,560 0,560 C 83.07435897435897,540.8897435897436 166.14871794871794,521.7794871794872 253,534 C 339.85128205128206,546.2205128205128 430.47948717948725,589.7717948717948 519,597 C 607.5205128205127,604.2282051282052 693.9333333333334,575.1333333333334 758,574 C 822.0666666666666,572.8666666666666 863.7871794871794,599.6948717948718 926,599 C 988.2128205128206,598.3051282051282 1070.9179487179488,570.0871794871795 1160,559 C 1249.0820512820512,547.9128205128205 1344.5410256410255,553.9564102564102 1440,560 C 1440,560 1440,700 1440,700 Z" stroke="none" stroke-width="0" fill="#0693e3ff" class="transition-all duration-300 ease-in-out delay-150 path-3"></path></svg>